<svg xmlns="http://www.w3.org/2000/svg" viewBox="0 0 512 512">
  <defs>
    <linearGradient id="grad" x1="0%" y1="0%" x2="100%" y2="100%">
      <stop offset="0%" style="stop-color:#3B82F6;stop-opacity:1" />
      <stop offset="100%" style="stop-color:#8B5CF6;stop-opacity:1" />
    </linearGradient>
    <filter id="glow">
      <feGaussianBlur stdDeviation="4" result="coloredBlur"/>
      <feMerge>
        <feMergeNode in="coloredBlur"/>
        <feMergeNode in="SourceGraphic"/>
      </feMerge>
    </filter>
  </defs>
  
  <!-- Background circle -->
  <circle cx="256" cy="256" r="240" fill="url(#grad)" filter="url(#glow)"/>
  
  <!-- Phone icon -->
  <path d="M380 130c-15-15-35-20-55-15-20 5-35 15-45 30l-30 40c-8 12-10 25-5 40 5 15 15 30 30 50 15 20 30 35 50 40 15 5 35 5 50-10l20-25c10-12 15-25 12-40-2-15-10-30-25-45l-2-2c-12-12-25-18-40-15-15 2-30 12-40 25-8 12-12 25-10 40 2 15 8 30 18 42l25 30c8 10 15 22 18 35 3 13 2 28-5 42-10 20-28 38-52 50-24 12-52 15-78 8-26-7-52-22-72-42-20-20-35-48-42-75-7-27-4-55 8-80 12-25 32-48 55-62 23-14 50-22 75-20 25 2 50 12 68 28l2 2c12 12 22 28 25 45 3 17-2 35-12 48l-25 30c-10 12-20 20-30 25z" fill="white" opacity="0.95"/>
  
  <!-- UK flag accent -->
  <circle cx="256" cy="380" r="30" fill="white" opacity="0.9"/>
  <text x="256" y="388" font-family="Arial" font-size="24" font-weight="bold" fill="#3B82F6" text-anchor="middle">UK</text>
</svg>
